<svg id="Layer_2" data-name="Layer 2" xmlns="http://www.w3.org/2000/svg" viewBox="0 0 1366 768"><polygon points="706.89 216.18 567.2 296.82 597.2 348.79 765 252 706.89 216.18" fill="#141556"/><rect x="567" y="297" width="59" height="162" fill="#141556"/><rect x="585" y="357" width="208" height="60" transform="translate(-101.19 396.35) rotate(-30)" fill="#141556"/><polygon points="904 355 847 389 847 264 903 265 904 355" fill="#31baf3"/><polygon points="875.5 312.38 768 252 823.73 218.95 903 265 875.5 312.38" fill="#31baf3"/><polygon points="794 361 758 361 764 309 794 325 794 361" fill="#141556"/><rect x="571.06" y="444.76" width="160.09" height="57.88" transform="translate(324.08 -262.09) rotate(30)" fill="#141556"/><polygon points="845.41 457.65 706 539 677 490 846 390 845.41 457.65" fill="#141556"/></svg>